<?xml version="1.0" encoding="UTF-8"?>
<svg id="Layer_1" xmlns="http://www.w3.org/2000/svg" width="1920" height="1080" xmlns:xlink="http://www.w3.org/1999/xlink" version="1.1" viewBox="0 0 1920 1080">
  <!-- Generator: Adobe Illustrator 29.6.1, SVG Export Plug-In . SVG Version: 2.1.1 Build 9)  -->
  <defs>
    <linearGradient id="linear-gradient" x1="1259.787" y1="619.639" x2="1261.632" y2="435.44" gradientUnits="userSpaceOnUse">
      <stop offset="0" stop-color="#fff" stop-opacity="0"/>
      <stop offset=".612" stop-color="#fff" stop-opacity="0"/>
      <stop offset=".823" stop-color="#fff" stop-opacity=".5"/>
      <stop offset=".854" stop-color="#fff" stop-opacity=".639"/>
      <stop offset=".895" stop-color="#fff" stop-opacity=".794"/>
      <stop offset=".933" stop-color="#fff" stop-opacity=".907"/>
      <stop offset=".965" stop-color="#fff" stop-opacity=".976"/>
      <stop offset=".989" stop-color="#fff"/>
    </linearGradient>
    <radialGradient id="radial-gradient" cx="1260.71" cy="487.323" fx="1260.71" fy="487.323" r="12.141" gradientTransform="translate(0 -51.217)" gradientUnits="userSpaceOnUse">
      <stop offset=".12" stop-color="#fff"/>
      <stop offset=".123" stop-color="#fbfeff" stop-opacity=".986"/>
      <stop offset=".162" stop-color="#d2f1ff" stop-opacity=".801"/>
      <stop offset=".205" stop-color="#ade6ff" stop-opacity=".634"/>
      <stop offset=".252" stop-color="#8bdcff" stop-opacity=".482"/>
      <stop offset=".303" stop-color="#6ed4ff" stop-opacity=".351"/>
      <stop offset=".359" stop-color="#5cf" stop-opacity=".241"/>
      <stop offset=".422" stop-color="#41c7ff" stop-opacity=".152"/>
      <stop offset=".494" stop-color="#32c2ff" stop-opacity=".083"/>
      <stop offset=".582" stop-color="#27bfff" stop-opacity=".035"/>
      <stop offset=".702" stop-color="#21bdff" stop-opacity=".008"/>
      <stop offset="1" stop-color="#20bdff" stop-opacity="0"/>
    </radialGradient>
    <linearGradient id="linear-gradient1" x1="434.079" y1="504.735" x2="436.617" y2="251.383" xlink:href="#linear-gradient"/>
    <radialGradient id="radial-gradient1" cx="435.348" cy="313.642" fx="435.348" fy="313.642" r="16.699" gradientTransform="translate(0 -61.342)" xlink:href="#radial-gradient"/>
    <linearGradient id="linear-gradient2" x1="926.426" y1="691.179" x2="930.735" y2="261.036" xlink:href="#linear-gradient"/>
    <radialGradient id="radial-gradient2" cx="928.58" cy="323.367" fx="928.58" fy="323.367" r="28.352" gradientTransform="translate(0 -60.775)" xlink:href="#radial-gradient"/>
    <linearGradient id="linear-gradient3" x1="474.068" y1="415.609" x2="477.154" y2="107.525" xlink:href="#linear-gradient"/>
    <radialGradient id="radial-gradient3" cx="475.611" cy="177.896" fx="475.611" fy="177.896" r="20.306" gradientTransform="translate(0 -69.256)" xlink:href="#radial-gradient"/>
    <linearGradient id="linear-gradient4" x1="1631.243" y1="618.997" x2="1634.329" y2="310.913" xlink:href="#linear-gradient"/>
    <radialGradient id="radial-gradient4" cx="1632.786" cy="370.08" fx="1632.786" fy="370.08" r="20.306" gradientTransform="translate(0 -58.052)" xlink:href="#radial-gradient"/>
    <linearGradient id="linear-gradient5" x1="580.167" y1="641.295" x2="584.91" y2="167.788" xlink:href="#linear-gradient"/>
    <radialGradient id="radial-gradient5" cx="582.538" cy="235.404" fx="582.538" fy="235.404" r="31.21" gradientTransform="translate(0 -65.903)" xlink:href="#radial-gradient"/>
    <linearGradient id="linear-gradient6" x1="378.747" y1="807.304" x2="382.669" y2="415.75" xlink:href="#linear-gradient"/>
    <radialGradient id="radial-gradient6" cx="380.708" cy="469.426" fx="380.708" fy="469.426" r="25.808" gradientTransform="translate(0 -52.26)" xlink:href="#radial-gradient"/>
    <linearGradient id="linear-gradient7" x1="1027.574" y1="487.695" x2="1029.149" y2="330.486" xlink:href="#linear-gradient"/>
    <radialGradient id="radial-gradient7" cx="1028.362" cy="388.058" fx="1028.362" fy="388.058" r="10.362" gradientTransform="translate(0 -57.004)" xlink:href="#radial-gradient"/>
    <linearGradient id="linear-gradient8" x1="109.675" y1="482.671" x2="111.249" y2="325.462" xlink:href="#linear-gradient"/>
    <radialGradient id="radial-gradient8" cx="110.462" cy="383.311" fx="110.462" fy="383.311" r="10.362" gradientTransform="translate(0 -57.28)" xlink:href="#radial-gradient"/>
    <linearGradient id="linear-gradient9" x1="515.402" y1="354.328" x2="516.481" y2="246.516" xlink:href="#linear-gradient"/>
    <radialGradient id="radial-gradient9" cx="515.942" cy="308.545" fx="515.942" fy="308.545" r="7.106" gradientTransform="translate(0 -61.639)" xlink:href="#radial-gradient"/>
    <linearGradient id="linear-gradient10" x1="260.752" y1="390.989" x2="261.832" y2="283.177" xlink:href="#linear-gradient"/>
    <radialGradient id="radial-gradient10" cx="261.292" cy="343.187" fx="261.292" fy="343.187" r="7.106" gradientTransform="translate(0 -59.62)" xlink:href="#radial-gradient"/>
    <linearGradient id="linear-gradient11" x1="1295.308" y1="388.525" x2="1296.388" y2="280.713" xlink:href="#linear-gradient"/>
    <radialGradient id="radial-gradient11" cx="1295.848" cy="340.859" fx="1295.848" fy="340.859" r="7.106" gradientTransform="translate(0 -59.755)" xlink:href="#radial-gradient"/>
    <linearGradient id="linear-gradient12" x1="188.977" y1="379.547" x2="190.057" y2="271.735" xlink:href="#linear-gradient"/>
    <radialGradient id="radial-gradient12" cx="189.517" cy="332.375" fx="189.517" fy="332.375" r="7.106" gradientTransform="translate(0 -60.25)" xlink:href="#radial-gradient"/>
    <linearGradient id="linear-gradient13" x1="1583.38" y1="373.149" x2="1584.46" y2="265.337" xlink:href="#linear-gradient"/>
    <radialGradient id="radial-gradient13" cx="1583.92" cy="326.329" fx="1583.92" fy="326.329" r="7.106" gradientTransform="translate(0 -60.603)" xlink:href="#radial-gradient"/>
    <linearGradient id="linear-gradient14" x1="1582.811" y1="786.162" x2="1585.041" y2="563.565" xlink:href="#linear-gradient"/>
    <radialGradient id="radial-gradient14" cx="1583.926" cy="608.521" fx="1583.926" fy="608.521" r="14.672" gradientTransform="translate(0 -44.151)" xlink:href="#radial-gradient"/>
    <linearGradient id="linear-gradient15" x1="1755.548" y1="746.109" x2="1757.123" y2="588.899" xlink:href="#linear-gradient"/>
    <radialGradient id="radial-gradient15" cx="1756.335" cy="632.236" fx="1756.335" fy="632.236" r="10.362" gradientTransform="translate(0 -42.768)" xlink:href="#radial-gradient"/>
    <linearGradient id="linear-gradient16" x1="529.681" y1="709.725" x2="531.941" y2="484.129" xlink:href="#linear-gradient"/>
    <radialGradient id="radial-gradient16" cx="530.811" cy="533.471" fx="530.811" fy="533.471" r="14.869" gradientTransform="translate(0 -48.526)" xlink:href="#radial-gradient"/>
    <linearGradient id="linear-gradient17" x1="721.945" y1="749.123" x2="724.281" y2="515.912" xlink:href="#linear-gradient"/>
    <radialGradient id="radial-gradient17" cx="723.113" cy="563.53" fx="723.113" fy="563.53" r="15.371" gradientTransform="translate(0 -46.774)" xlink:href="#radial-gradient"/>
    <linearGradient id="linear-gradient18" x1="864.938" y1="632.463" x2="867.588" y2="367.978" xlink:href="#linear-gradient"/>
    <radialGradient id="radial-gradient18" cx="866.263" cy="423.851" fx="866.263" fy="423.851" r="17.433" gradientTransform="translate(0 -54.917)" xlink:href="#radial-gradient"/>
    <linearGradient id="linear-gradient19" x1="1517.355" y1="598.627" x2="1520.89" y2="245.697" xlink:href="#linear-gradient"/>
    <radialGradient id="radial-gradient19" cx="1519.123" cy="308.609" fx="1519.123" fy="308.609" r="23.262" gradientTransform="translate(0 -61.636)" xlink:href="#radial-gradient"/>
    <linearGradient id="linear-gradient20" x1="966.572" y1="484.271" x2="970.107" y2="131.341" xlink:href="#linear-gradient"/>
    <radialGradient id="radial-gradient20" cx="968.339" cy="200.553" fx="968.339" fy="200.553" r="23.262" gradientTransform="translate(0 -67.935)" xlink:href="#radial-gradient"/>
    <linearGradient id="linear-gradient21" x1="621.822" y1="753.961" x2="625.166" y2="420.118" xlink:href="#linear-gradient"/>
    <radialGradient id="radial-gradient21" cx="623.494" cy="473.357" fx="623.494" fy="473.357" r="22.004" gradientTransform="translate(0 -52.031)" xlink:href="#radial-gradient"/>
    <linearGradient id="linear-gradient22" x1="332.045" y1="538.935" x2="334.326" y2="311.198" xlink:href="#linear-gradient"/>
    <radialGradient id="radial-gradient22" cx="333.185" cy="370.074" fx="333.185" fy="370.074" r="15.011" gradientTransform="translate(0 -58.052)" xlink:href="#radial-gradient"/>
    <linearGradient id="linear-gradient23" x1="1450.142" y1="598.224" x2="1453.489" y2="264.1" xlink:href="#linear-gradient"/>
    <radialGradient id="radial-gradient23" cx="1451.815" cy="325.935" fx="1451.815" fy="325.935" r="22.023" gradientTransform="translate(0 -60.625)" xlink:href="#radial-gradient"/>
    <linearGradient id="linear-gradient24" x1="1360.467" y1="624.512" x2="1365.983" y2="73.816" xlink:href="#linear-gradient"/>
    <radialGradient id="radial-gradient24" cx="1363.225" cy="146.873" fx="1363.225" fy="146.873" r="36.297" gradientTransform="translate(0 -71.065)" xlink:href="#radial-gradient"/>
    <linearGradient id="linear-gradient25" x1="1706.094" y1="714.825" x2="1711.61" y2="164.129" xlink:href="#linear-gradient"/>
    <radialGradient id="radial-gradient25" cx="1708.852" cy="232.211" fx="1708.852" fy="232.211" r="36.297" gradientTransform="translate(0 -66.09)" xlink:href="#radial-gradient"/>
    <linearGradient id="linear-gradient26" x1="688.792" y1="430.801" x2="690.553" y2="254.991" xlink:href="#linear-gradient"/>
    <radialGradient id="radial-gradient26" cx="689.673" cy="316.786" fx="689.673" fy="316.786" r="11.588" gradientTransform="translate(0 -61.159)" xlink:href="#radial-gradient"/>
    <linearGradient id="linear-gradient27" x1="221.393" y1="542.673" x2="223.154" y2="366.864" xlink:href="#linear-gradient"/>
    <radialGradient id="radial-gradient27" cx="222.274" cy="422.496" fx="222.274" fy="422.496" r="11.588" gradientTransform="translate(0 -54.996)" xlink:href="#radial-gradient"/>
    <linearGradient id="linear-gradient28" x1="1211.985" y1="666.751" x2="1216.647" y2="201.321" xlink:href="#linear-gradient"/>
    <radialGradient id="radial-gradient28" cx="1214.316" cy="267.063" fx="1214.316" fy="267.063" r="30.677" gradientTransform="translate(0 -64.058)" xlink:href="#radial-gradient"/>
    <linearGradient id="linear-gradient29" x1="798.611" y1="646.879" x2="802.834" y2="225.28" xlink:href="#linear-gradient"/>
    <radialGradient id="radial-gradient29" cx="800.722" cy="289.552" fx="800.722" fy="289.552" r="27.788" gradientTransform="translate(0 -62.747)" xlink:href="#radial-gradient"/>
    <linearGradient id="linear-gradient30" x1="995.821" y1="774.837" x2="998.749" y2="482.495" xlink:href="#linear-gradient"/>
    <radialGradient id="radial-gradient30" cx="997.285" cy="532.155" fx="997.285" fy="532.155" r="19.269" gradientTransform="translate(0 -48.603)" xlink:href="#radial-gradient"/>
    <linearGradient id="linear-gradient31" x1="1101.576" y1="710.518" x2="1105.692" y2="299.605" xlink:href="#linear-gradient"/>
    <radialGradient id="radial-gradient31" cx="1103.634" cy="359.746" fx="1103.634" fy="359.746" r="27.084" gradientTransform="translate(0 -58.654)" xlink:href="#radial-gradient"/>
    <linearGradient id="linear-gradient32" x1="909.136" y1="920.292" x2="912.469" y2="587.561" xlink:href="#linear-gradient"/>
    <radialGradient id="radial-gradient32" cx="910.802" cy="631.572" fx="910.802" fy="631.572" r="21.931" gradientTransform="translate(0 -42.807)" xlink:href="#radial-gradient"/>
  </defs>
  <g id="_x3C_Group_x3E_" opacity=".75">
    <g>
      <rect x="1259.946" y="435.438" width="1.527" height="184.202" fill="url(#linear-gradient)"/>
      <ellipse cx="1260.71" cy="436.106" rx="12.141" ry="12.849" fill="url(#radial-gradient)"/>
    </g>
    <g>
      <rect x="434.298" y="251.381" width="2.1" height="253.356" fill="url(#linear-gradient1)"/>
      <path d="M452.047,252.3c0,9.76-7.476,17.672-16.699,17.672s-16.699-7.912-16.699-17.672,7.476-17.673,16.699-17.673,16.699,7.912,16.699,17.673Z" fill="url(#radial-gradient1)"/>
    </g>
    <g>
      <rect x="926.798" y="261.032" width="3.565" height="430.15" fill="url(#linear-gradient2)"/>
      <ellipse cx="928.58" cy="262.592" rx="28.351" ry="30.005" fill="url(#radial-gradient2)"/>
    </g>
    <g>
      <rect x="474.334" y="107.523" width="2.554" height="308.089" fill="url(#linear-gradient3)"/>
      <path d="M495.917,108.64c0,11.869-9.091,21.491-20.306,21.491s-20.306-9.622-20.306-21.491,9.092-21.49,20.306-21.49,20.306,9.622,20.306,21.49Z" fill="url(#radial-gradient3)"/>
    </g>
    <g>
      <rect x="1631.509" y="310.91" width="2.554" height="308.089" fill="url(#linear-gradient4)"/>
      <path d="M1653.092,312.028c0,11.869-9.091,21.491-20.306,21.491s-20.306-9.622-20.306-21.491,9.092-21.491,20.306-21.491,20.306,9.622,20.306,21.491Z" fill="url(#radial-gradient4)"/>
    </g>
    <g>
      <rect x="580.576" y="167.784" width="3.925" height="473.516" fill="url(#linear-gradient5)"/>
      <ellipse cx="582.538" cy="169.501" rx="31.21" ry="33.03" fill="url(#radial-gradient5)"/>
    </g>
    <g>
      <rect x="379.085" y="415.746" width="3.245" height="391.561" fill="url(#linear-gradient6)"/>
      <ellipse cx="380.708" cy="417.167" rx="25.808" ry="27.313" fill="url(#radial-gradient6)"/>
    </g>
    <g>
      <rect x="1027.71" y="330.484" width="1.303" height="157.213" fill="url(#linear-gradient7)"/>
      <ellipse cx="1028.362" cy="331.054" rx="10.362" ry="10.966" fill="url(#radial-gradient7)"/>
    </g>
    <g>
      <rect x="109.81" y="325.46" width="1.303" height="157.213" fill="url(#linear-gradient8)"/>
      <ellipse cx="110.462" cy="326.03" rx="10.362" ry="10.966" fill="url(#radial-gradient8)"/>
    </g>
    <g>
      <rect x="515.495" y="246.515" width=".894" height="107.814" fill="url(#linear-gradient9)"/>
      <ellipse cx="515.942" cy="246.906" rx="7.106" ry="7.52" fill="url(#radial-gradient9)"/>
    </g>
    <g>
      <rect x="260.845" y="283.176" width=".894" height="107.814" fill="url(#linear-gradient10)"/>
      <ellipse cx="261.292" cy="283.567" rx="7.106" ry="7.52" fill="url(#radial-gradient10)"/>
    </g>
    <g>
      <rect x="1295.401" y="280.712" width=".894" height="107.814" fill="url(#linear-gradient11)"/>
      <ellipse cx="1295.848" cy="281.103" rx="7.106" ry="7.52" fill="url(#radial-gradient11)"/>
    </g>
    <g>
      <rect x="189.07" y="271.734" width=".894" height="107.814" fill="url(#linear-gradient12)"/>
      <ellipse cx="189.517" cy="272.125" rx="7.106" ry="7.52" fill="url(#radial-gradient12)"/>
    </g>
    <g>
      <rect x="1583.473" y="265.336" width=".894" height="107.814" fill="url(#linear-gradient13)"/>
      <ellipse cx="1583.92" cy="265.727" rx="7.106" ry="7.52" fill="url(#radial-gradient13)"/>
    </g>
    <g>
      <rect x="1583.004" y="563.563" width="1.845" height="222.601" fill="url(#linear-gradient14)"/>
      <ellipse cx="1583.926" cy="564.371" rx="14.672" ry="15.527" fill="url(#radial-gradient14)"/>
    </g>
    <g>
      <rect x="1755.684" y="588.898" width="1.303" height="157.213" fill="url(#linear-gradient15)"/>
      <ellipse cx="1756.335" cy="589.468" rx="10.362" ry="10.966" fill="url(#radial-gradient15)"/>
    </g>
    <g>
      <rect x="529.876" y="484.127" width="1.87" height="225.6" fill="url(#linear-gradient16)"/>
      <path d="M545.68,484.945c0,8.691-6.657,15.737-14.869,15.737s-14.869-7.046-14.869-15.737,6.657-15.737,14.869-15.737,14.869,7.046,14.869,15.737Z" fill="url(#radial-gradient16)"/>
    </g>
    <g>
      <rect x="722.146" y="515.91" width="1.933" height="233.215" fill="url(#linear-gradient17)"/>
      <ellipse cx="723.113" cy="516.756" rx="15.371" ry="16.268" fill="url(#radial-gradient17)"/>
    </g>
    <g>
      <rect x="865.167" y="367.975" width="2.192" height="264.49" fill="url(#linear-gradient18)"/>
      <path d="M883.695,368.935c0,10.189-7.805,18.449-17.433,18.449s-17.433-8.26-17.433-18.449,7.805-18.449,17.433-18.449,17.433,8.26,17.433,18.449Z" fill="url(#radial-gradient18)"/>
    </g>
    <g>
      <rect x="1517.66" y="245.694" width="2.926" height="352.936" fill="url(#linear-gradient19)"/>
      <ellipse cx="1519.123" cy="246.974" rx="23.262" ry="24.619" fill="url(#radial-gradient19)"/>
    </g>
    <g>
      <rect x="966.876" y="131.338" width="2.926" height="352.936" fill="url(#linear-gradient20)"/>
      <ellipse cx="968.339" cy="132.617" rx="23.262" ry="24.619" fill="url(#radial-gradient20)"/>
    </g>
    <g>
      <rect x="622.111" y="420.115" width="2.767" height="333.848" fill="url(#linear-gradient21)"/>
      <ellipse cx="623.494" cy="421.326" rx="22.004" ry="23.287" fill="url(#radial-gradient21)"/>
    </g>
    <g>
      <rect x="332.241" y="311.196" width="1.888" height="227.741" fill="url(#linear-gradient22)"/>
      <path d="M348.196,312.022c0,8.773-6.72,15.886-15.01,15.886s-15.011-7.112-15.011-15.886,6.72-15.886,15.011-15.886,15.01,7.112,15.01,15.886Z" fill="url(#radial-gradient22)"/>
    </g>
    <g>
      <rect x="1450.43" y="264.098" width="2.769" height="334.13" fill="url(#linear-gradient23)"/>
      <ellipse cx="1451.815" cy="265.309" rx="22.023" ry="23.307" fill="url(#radial-gradient23)"/>
    </g>
    <g>
      <rect x="1360.943" y="73.811" width="4.565" height="550.706" fill="url(#linear-gradient24)"/>
      <ellipse cx="1363.225" cy="75.809" rx="36.297" ry="38.414" fill="url(#radial-gradient24)"/>
    </g>
    <g>
      <rect x="1706.57" y="164.124" width="4.565" height="550.706" fill="url(#linear-gradient25)"/>
      <ellipse cx="1708.852" cy="166.122" rx="36.297" ry="38.414" fill="url(#radial-gradient25)"/>
    </g>
    <g>
      <rect x="688.944" y="254.99" width="1.457" height="175.812" fill="url(#linear-gradient26)"/>
      <path d="M701.261,255.627c0,6.773-5.188,12.263-11.588,12.263s-11.588-5.491-11.588-12.263,5.188-12.264,11.588-12.264,11.588,5.491,11.588,12.264Z" fill="url(#radial-gradient26)"/>
    </g>
    <g>
      <rect x="221.545" y="366.862" width="1.457" height="175.812" fill="url(#linear-gradient27)"/>
      <path d="M233.861,367.5c0,6.773-5.188,12.263-11.588,12.263s-11.588-5.491-11.588-12.263,5.188-12.264,11.588-12.264,11.588,5.491,11.588,12.264Z" fill="url(#radial-gradient27)"/>
    </g>
    <g>
      <rect x="1212.387" y="201.317" width="3.858" height="465.438" fill="url(#linear-gradient28)"/>
      <ellipse cx="1214.316" cy="203.005" rx="30.677" ry="32.466" fill="url(#radial-gradient28)"/>
    </g>
    <g>
      <rect x="798.975" y="225.276" width="3.494" height="421.606" fill="url(#linear-gradient29)"/>
      <ellipse cx="800.722" cy="226.806" rx="27.788" ry="29.409" fill="url(#radial-gradient29)"/>
    </g>
    <g>
      <rect x="996.074" y="482.492" width="2.423" height="292.347" fill="url(#linear-gradient30)"/>
      <path d="M1016.554,483.552c0,11.262-8.627,20.393-19.269,20.393s-19.269-9.13-19.269-20.393,8.627-20.392,19.269-20.392,19.269,9.13,19.269,20.392Z" fill="url(#radial-gradient30)"/>
    </g>
    <g>
      <rect x="1101.931" y="299.602" width="3.406" height="410.92" fill="url(#linear-gradient31)"/>
      <ellipse cx="1103.634" cy="301.092" rx="27.084" ry="28.663" fill="url(#radial-gradient31)"/>
    </g>
    <g id="_x3C_Groupx_x3E_">
      <rect x="909.423" y="587.558" width="2.758" height="332.737" fill="url(#linear-gradient32)"/>
      <ellipse cx="910.802" cy="588.765" rx="21.931" ry="23.21" fill="url(#radial-gradient32)"/>
    </g>
  </g>
</svg>