<?xml version="1.0" encoding="UTF-8"?>
<svg id="Layer_1" xmlns="http://www.w3.org/2000/svg" width="500" height="200" xmlns:xlink="http://www.w3.org/1999/xlink" version="1.1" viewBox="0 0 500 200">
  <!-- Generator: Adobe Illustrator 29.6.1, SVG Export Plug-In . SVG Version: 2.1.1 Build 9)  -->
  <defs>
    <linearGradient id="linear-gradient" x1="20.135" y1="119.172" x2="151.672" y2="83.927" gradientUnits="userSpaceOnUse">
      <stop offset="0" stop-color="#0041d7"/>
      <stop offset=".5" stop-color="#20bdff"/>
      <stop offset="1" stop-color="#00e8c6"/>
    </linearGradient>
  </defs>
  <g>
    <path d="M184.236,68.288V31.161h13.182c11.163,0,17.965,6.977,17.965,18.538s-6.802,18.589-18.09,18.589h-13.057ZM196.919,61.734c7.151,0,10.889-3.688,10.889-12.035,0-8.297-3.738-11.985-10.839-11.985h-5.133v24.021h5.083Z"/>
    <path d="M220.536,32.955c0-2.118,1.844-3.838,4.111-3.838,2.243,0,4.111,1.72,4.111,3.838,0,2.143-1.869,3.837-4.111,3.837-2.268,0-4.111-1.694-4.111-3.837ZM220.91,40.431h7.475v27.857h-7.475v-27.857Z"/>
    <path d="M234.587,72.475l6.429-1.794c.698,1.569,2.417,3.189,6.055,3.189,3.812,0,6.129-1.72,6.129-5.383v-5.133h-.573c-1.021,2.242-3.214,4.535-7.724,4.535-6.279,0-11.337-4.36-11.337-13.58,0-9.419,5.183-14.229,11.362-14.229,4.685,0,6.977,2.816,7.999,5.033h.323v-4.684h7.351v27.633c0,7.551-5.631,11.238-13.479,11.238-6.977,0-11.313-2.841-12.534-6.827ZM253.225,54.26c0-4.934-2.143-8.198-5.98-8.198-3.937,0-6.005,3.414-6.005,8.198,0,4.858,2.118,7.948,6.005,7.948,3.812,0,5.98-2.965,5.98-7.948Z"/>
    <path d="M266.601,32.955c0-2.118,1.844-3.838,4.111-3.838,2.242,0,4.111,1.72,4.111,3.838,0,2.143-1.869,3.837-4.111,3.837-2.268,0-4.111-1.694-4.111-3.837ZM266.975,40.431h7.475v27.857h-7.475v-27.857Z"/>
    <path d="M294.632,46.137h-5.208v14.003c0,1.77.723,2.592,2.542,2.592.573,0,1.818-.175,2.367-.324l1.071,5.606c-1.67.499-3.339.673-4.834.673-5.582,0-8.622-2.791-8.622-7.898v-14.651h-3.837v-5.706h3.837v-6.629h7.476v6.629h5.208v5.706Z"/>
    <path d="M298.242,60.489c0-6.229,5.033-8.023,10.515-8.547,4.784-.474,6.753-.673,6.753-2.492v-.124c0-2.367-1.569-3.713-4.36-3.713-2.891,0-4.66,1.42-5.258,3.214l-6.853-1.146c1.421-4.834,5.906-7.601,12.135-7.601,5.98,0,11.812,2.691,11.812,9.444v18.763h-7.077v-3.862h-.249c-1.346,2.592-4.036,4.41-8.147,4.41-5.308,0-9.27-2.84-9.27-8.347ZM315.559,58.321v-3.016c-.922.648-3.887,1.047-5.531,1.271-2.767.398-4.61,1.47-4.61,3.712,0,2.168,1.744,3.29,4.211,3.29,3.489,0,5.931-2.317,5.931-5.258Z"/>
    <path d="M336.835,68.288h-7.476V31.161h7.476v37.127Z"/>
    <path d="M182.991,107.8h7.4c.249,3.763,3.264,5.631,7.375,5.631,4.062,0,6.753-1.918,6.753-4.734,0-2.541-2.367-3.712-6.404-4.709l-4.087-1.021c-6.279-1.521-10.042-4.685-10.042-10.092,0-6.703,5.88-11.188,13.954-11.188,8.223,0,13.605,4.561,13.73,11.089h-7.351c-.274-2.965-2.641-4.685-6.454-4.685-3.887,0-6.08,1.794-6.08,4.286,0,2.766,2.791,3.937,5.93,4.685l3.364.822c6.254,1.444,11.088,4.634,11.088,10.863,0,6.753-5.307,11.113-14.328,11.113-8.92,0-14.626-4.161-14.851-12.06Z"/>
    <path d="M216.301,105.507c0-8.621,5.232-14.402,13.63-14.402s13.63,5.781,13.63,14.402c0,8.572-5.258,14.353-13.63,14.353s-13.63-5.78-13.63-14.353ZM235.96,105.482c0-4.909-2.043-8.497-6.03-8.497s-6.005,3.563-6.005,8.497c0,4.858,2.019,8.497,6.005,8.497s6.03-3.639,6.03-8.497Z"/>
    <path d="M245.424,91.454h7.949l4.685,14.452c.772,2.491,1.396,5.008,1.993,7.6.573-2.592,1.171-5.083,1.943-7.6l4.635-14.452h7.849l-10.291,27.857h-8.496l-10.266-27.857Z"/>
    <path d="M276.343,105.532c0-8.597,5.232-14.428,13.381-14.428,7.275,0,13.082,4.61,13.082,14.129v2.093h-19.062c.175,4.56,2.716,6.902,6.479,6.902,2.616,0,4.585-1.146,5.383-3.289l6.777,1.271c-1.371,4.635-5.806,7.649-12.284,7.649-8.522,0-13.755-5.531-13.755-14.327ZM295.604,102.642c-.374-3.638-2.343-5.905-5.807-5.905-3.562,0-5.706,2.467-6.005,5.905h11.812Z"/>
    <path d="M307.908,91.454h7.227v4.858h.299c1.021-3.438,3.588-5.232,6.728-5.232.772,0,1.744.1,2.417.249v6.678c-.673-.199-2.143-.374-3.239-.374-3.438,0-5.955,2.367-5.955,5.831v15.848h-7.476v-27.857Z"/>
    <path d="M326.27,105.532c0-8.597,5.232-14.428,13.38-14.428,7.276,0,13.082,4.61,13.082,14.129v2.093h-19.062c.174,4.56,2.716,6.902,6.479,6.902,2.616,0,4.585-1.146,5.382-3.289l6.777,1.271c-1.37,4.635-5.806,7.649-12.284,7.649-8.521,0-13.754-5.531-13.754-14.327ZM345.531,102.642c-.374-3.638-2.342-5.905-5.806-5.905-3.563,0-5.706,2.467-6.005,5.905h11.811Z"/>
    <path d="M357.463,83.979c0-2.118,1.844-3.838,4.111-3.838,2.242,0,4.111,1.72,4.111,3.838,0,2.143-1.869,3.837-4.111,3.837-2.268,0-4.111-1.694-4.111-3.837ZM357.836,91.454h7.476v27.857h-7.476v-27.857Z"/>
    <path d="M371.514,123.498l6.429-1.794c.698,1.569,2.417,3.189,6.055,3.189,3.812,0,6.13-1.72,6.13-5.383v-5.133h-.573c-1.021,2.242-3.214,4.535-7.724,4.535-6.279,0-11.338-4.36-11.338-13.58,0-9.419,5.183-14.229,11.362-14.229,4.685,0,6.978,2.816,7.999,5.033h.323v-4.684h7.351v27.633c0,7.551-5.631,11.238-13.479,11.238-6.978,0-11.313-2.841-12.534-6.827ZM390.152,105.283c0-4.934-2.144-8.198-5.98-8.198-3.937,0-6.005,3.414-6.005,8.198,0,4.858,2.118,7.948,6.005,7.948,3.812,0,5.98-2.965,5.98-7.948Z"/>
    <path d="M411.377,119.312h-7.476v-27.857h7.052l.1,5.756c1.57-3.888,4.386-6.105,8.672-6.105,5.78,0,9.568,3.962,9.568,10.49v17.717h-7.476v-16.421c0-3.463-1.894-5.531-5.033-5.531-3.189,0-5.407,2.143-5.407,5.83v16.122Z"/>
    <path d="M449.496,97.16h-5.207v14.003c0,1.77.723,2.592,2.541,2.592.573,0,1.819-.175,2.367-.324l1.071,5.606c-1.669.499-3.339.673-4.834.673-5.581,0-8.621-2.791-8.621-7.898v-14.651h-3.837v-5.706h3.837v-6.629h7.476v6.629h5.207v5.706Z"/>
    <path d="M456.993,123.548l.922.224c3.016.822,5.083-.1,5.407-2.891l.199-1.494-10.465-27.933h7.948l4.685,14.452c.748,2.417,1.246,4.809,1.77,7.275.573-2.491,1.221-4.884,2.019-7.275l4.884-14.452h7.849l-11.836,31.146c-1.694,4.51-4.635,7.326-10.216,7.326-1.969,0-3.812-.324-4.884-.748l1.719-5.631Z"/>
    <path d="M191.836,170.335h-7.6v-37.127h7.6v37.127Z"/>
    <path d="M205.863,170.335h-7.475v-27.857h7.052l.1,5.756c1.57-3.888,4.385-6.105,8.671-6.105,5.781,0,9.568,3.962,9.568,10.49v17.717h-7.476v-16.421c0-3.463-1.894-5.531-5.033-5.531-3.189,0-5.407,2.143-5.407,5.83v16.122Z"/>
    <path d="M228.982,156.456c0-9.519,5.133-14.328,11.312-14.328,4.734,0,6.927,2.816,7.924,5.033h.249v-13.953h7.475v37.127h-7.351v-4.46h-.374c-1.022,2.242-3.339,4.934-7.874,4.934-6.429,0-11.362-5.083-11.362-14.353ZM248.617,156.431c0-5.058-2.143-8.322-5.98-8.322-3.937,0-5.98,3.438-5.98,8.322,0,4.909,2.093,8.373,5.98,8.373,3.812,0,5.98-3.34,5.98-8.373Z"/>
    <path d="M261.145,156.556c0-8.597,5.232-14.428,13.38-14.428,7.276,0,13.082,4.61,13.082,14.129v2.093h-19.062c.174,4.56,2.716,6.902,6.479,6.902,2.616,0,4.585-1.146,5.382-3.289l6.777,1.271c-1.37,4.635-5.806,7.649-12.284,7.649-8.521,0-13.754-5.531-13.754-14.327ZM280.406,153.665c-.374-3.638-2.342-5.905-5.806-5.905-3.563,0-5.706,2.467-6.005,5.905h11.811Z"/>
    <path d="M298.517,156.032l-8.423-13.555h8.073l2.517,4.385c1.022,1.844,1.869,3.663,2.691,5.433.822-1.77,1.694-3.589,2.741-5.433l2.616-4.385h7.924l-8.597,13.654,8.995,14.203h-8.023l-3.09-5.258c-1.046-1.794-1.919-3.588-2.741-5.332-.797,1.744-1.619,3.538-2.641,5.332l-3.09,5.258h-7.924l8.971-14.303Z"/>
  </g>
  <path d="M67.342,136.938h15.024v23.366c-1.218-.626-2.461-1.532-3.757-2.739-2.873-2.715-5.753-6.96-8.196-12.42-1.122-2.499-2.149-5.258-3.071-8.207ZM38.355,136.938h19.678c1.209,4.254,2.628,8.229,4.254,11.848,1.575,3.514,3.341,6.708,5.307,9.516-11.83-3.971-22.001-11.525-29.239-21.364ZM62.401,105.75h19.966v22.271h-17.347c-1.443-6.795-2.367-14.32-2.619-22.271ZM26.854,105.75h26.62c.236,7.855,1.071,15.347,2.428,22.271h-22.974c-3.367-6.795-5.499-14.311-6.073-22.271ZM65.02,74.571h17.347v22.28h-19.966c.252-7.96,1.176-15.485,2.619-22.28ZM32.928,74.571h22.974c-1.356,6.924-2.191,14.416-2.428,22.28h-26.62c.575-7.96,2.706-15.485,6.073-22.28ZM67.585,44.296c-1.967,2.802-3.724,5.986-5.298,9.51-1.626,3.619-3.053,7.594-4.263,11.857h-19.669c7.238-9.839,17.409-17.391,29.23-21.367h0ZM82.366,42.287v23.375h-15.024c.922-2.958,1.949-5.706,3.071-8.211,2.443-5.456,5.323-9.719,8.196-12.425,1.296-1.216,2.539-2.113,3.757-2.739ZM113.69,37.686c-8.26-3.49-17.344-5.421-26.87-5.421h0c-38.07,0-69.03,30.961-69.03,69.03s30.961,69.039,69.03,69.039c9.525,0,18.607-1.931,26.865-5.427l-3.465-8.198c-5.891,2.488-12.267,4.071-18.948,4.559v-24.331h20.828c1.844,5.158,6.804,8.899,12.572,8.899,7.334,0,13.371-6.029,13.371-13.354s-6.038-13.371-13.371-13.371c-5.759,0-10.719,3.741-12.572,8.908h-20.828v-22.271h38.635c1.846,5.167,6.813,8.917,12.581,8.917,7.334,0,13.371-6.038,13.371-13.371s-6.038-13.362-13.371-13.362c-5.768,0-10.726,3.741-12.578,8.917h-38.635v-22.28h20.828c1.844,5.167,6.804,8.908,12.572,8.908,7.334,0,13.371-6.038,13.371-13.362s-6.038-13.371-13.371-13.371c-5.768,0-10.726,3.75-12.578,8.917h-20.819v-24.333c6.681.488,13.057,2.062,18.948,4.559l3.465-8.202Z" fill="url(#linear-gradient)"/>
</svg>