<?xml version="1.0" encoding="utf-8"?>
<!-- Generator: Adobe Illustrator 28.0.0, SVG Export Plug-In . SVG Version: 6.00 Build 0)  -->
<svg version="1.1" id="Layer_1" xmlns="http://www.w3.org/2000/svg" xmlns:xlink="http://www.w3.org/1999/xlink" x="0px" y="0px"
	 viewBox="0 0 64 64" style="enable-background:new 0 0 64 64;" xml:space="preserve">
<style type="text/css">
	.st0{fill:url(#SVGID_1_);}
</style>
<linearGradient id="SVGID_1_" gradientUnits="userSpaceOnUse" x1="2.1598" y1="26.0033" x2="61.0163" y2="41.7738" gradientTransform="matrix(1 0 0 -1 0 66)">
	<stop  offset="0" style="stop-color:#0041D7"/>
	<stop  offset="0.5" style="stop-color:#20BDFF"/>
	<stop  offset="1" style="stop-color:#00E8C6"/>
</linearGradient>
<path class="st0" d="M23.3,47.9H30v10.5c-0.5-0.3-1.1-0.7-1.7-1.2c-1.3-1.2-2.6-3.1-3.7-5.6C24.2,50.5,23.7,49.3,23.3,47.9z
	 M10.3,47.9h8.8c0.5,1.9,1.2,3.7,1.9,5.3c0.7,1.6,1.5,3,2.4,4.3C18.1,55.7,13.6,52.3,10.3,47.9L10.3,47.9z M21.1,34H30v10h-7.8
	C21.6,40.9,21.2,37.5,21.1,34z M5.2,34h11.9c0.1,3.5,0.5,6.9,1.1,10H7.9C6.4,40.9,5.4,37.6,5.2,34L5.2,34z M22.2,20H30v10h-8.9
	C21.2,26.4,21.6,23.1,22.2,20z M7.9,20h10.3c-0.6,3.1-1,6.5-1.1,10H5.2C5.4,26.4,6.4,23.1,7.9,20L7.9,20z M23.4,6.5
	c-0.9,1.3-1.7,2.7-2.4,4.3c-0.7,1.6-1.4,3.4-1.9,5.3h-8.8C13.6,11.7,18.1,8.3,23.4,6.5C23.4,6.5,23.4,6.5,23.4,6.5z M30,5.6v10.5
	h-6.7c0.4-1.3,0.9-2.6,1.4-3.7C25.7,9.9,27,8,28.3,6.8C28.9,6.3,29.5,5.9,30,5.6z M44,3.5C40.3,2,36.3,1.1,32,1.1l0,0
	C15,1.1,1.1,15,1.1,32S15,62.9,32,62.9c4.3,0,8.3-0.9,12-2.4l-1.6-3.7c-2.6,1.1-5.5,1.8-8.5,2V47.9h9.3c0.8,2.3,3,4,5.6,4
	c3.3,0,6-2.7,6-6s-2.7-6-6-6c-2.6,0-4.8,1.7-5.6,4H34V34h17.3c0.8,2.3,3,4,5.6,4c3.3,0,6-2.7,6-6s-2.7-6-6-6c-2.6,0-4.8,1.7-5.6,4
	H34V20h9.3c0.8,2.3,3,4,5.6,4c3.3,0,6-2.7,6-6s-2.7-6-6-6c-2.6,0-4.8,1.7-5.6,4H34V5.2c3,0.2,5.8,0.9,8.5,2L44,3.5L44,3.5z"/>
</svg>
